# xmcd
#
# Track frame offsets:
# 150
# 23190
# 40462
# 52708
# 68520
# 86903
# 101547
# 116338
# 128146
# 146501
# 161694
# 179747
# 196447
# 211758
# 224647
# 241707
# 256759
# 271642
# 281580
# 297153
# 314570
# 328503
# 341733
#
# Disc length: 4773 seconds
#
#
# Revision: 0
# Processed by: cddbd v1.5.2PL0 Copyright (c) Steve Scherf et al.
# Submitted via: FreeRIP 2.944 
#
DISCID=5712a317
DTITLE=HUGO PENA E GABRIEL - HUGO PENA E GABRIEL
DYEAR=2006
DGENRE=SERTANEJO
TTITLE0=Te amo e não te quero
TTITLE1=Eu sem voce
TTITLE2=Abuso de mulher
TTITLE3=Faz de conta
TTITLE4=Duzentos por hora
TTITLE5=Put Porri de viola desafio da paixão chicote da paixão
TTITLE6=Parece castigo
TTITLE7=Pra lá de bagdá
TTITLE8=Cigana (vou te amar)
TTITLE9=Do Brasil a argentina
TTITLE10=Um beijo
TTITLE11=Deusa menina
TTITLE12=Com todos menos comigo
TTITLE13=Por enquanto adeus
TTITLE14=Tadim Tadim
TTITLE15=Quero falar de amor
TTITLE16=Caso marcado
TTITLE17=Recado meu
TTITLE18=Saudade matadeira
TTITLE19=Vai embora
TTITLE20=HUGO PENA E GABRIEL
TTITLE21=HUGO PENA E GABRIEL
TTITLE22=HUGO PENA E GABRIEL
EXTD=
EXTT0=
EXTT1=
EXTT2=
EXTT3=
EXTT4=
EXTT5=
EXTT6=
EXTT7=
EXTT8=
EXTT9=
EXTT10=
EXTT11=
EXTT12=
EXTT13=
EXTT14=
EXTT15=
EXTT16=
EXTT17=
EXTT18=
EXTT19=
EXTT20=
EXTT21=
EXTT22=
PLAYORDER=
